<?xml version="1.0" encoding="UTF-8" standalone="no"?>
<!DOCTYPE svg PUBLIC "-//W3C//DTD SVG 1.1//EN" "http://www.w3.org/Graphics/SVG/1.1/DTD/svg11.dtd">
<svg width="100%" height="100%" viewBox="0 0 32 32" version="1.1" xmlns="http://www.w3.org/2000/svg" xmlns:xlink="http://www.w3.org/1999/xlink" xml:space="preserve" xmlns:serif="http://www.serif.com/" style="fill-rule:evenodd;clip-rule:evenodd;stroke-linejoin:round;stroke-miterlimit:2;">
    <g transform="matrix(1,0,0,1,6,6)">
        <path d="M10,7C11.656,7 13,8.344 13,10C13,11.656 11.656,13 10,13C8.344,13 7,11.656 7,10C7,8.344 8.344,7 10,7ZM10,-3C11.656,-3 13,-1.656 13,0C13,1.656 11.656,3 10,3C8.344,3 7,1.656 7,0C7,-1.656 8.344,-3 10,-3ZM10,17C11.656,17 13,18.344 13,20C13,21.656 11.656,23 10,23C8.344,23 7,21.656 7,20C7,18.344 8.344,17 10,17Z" style="fill:white;"/>
    </g>
</svg>
