<?xml version="1.0" encoding="UTF-8" standalone="no"?>
<!DOCTYPE svg PUBLIC "-//W3C//DTD SVG 1.1//EN" "http://www.w3.org/Graphics/SVG/1.1/DTD/svg11.dtd">
<svg width="100%" height="100%" viewBox="0 0 2500 2500" version="1.1" xmlns="http://www.w3.org/2000/svg" xmlns:xlink="http://www.w3.org/1999/xlink" xml:space="preserve" xmlns:serif="http://www.serif.com/" style="fill-rule:evenodd;clip-rule:evenodd;stroke-linejoin:round;stroke-miterlimit:2;">
    <g transform="matrix(1,0,0,1,-30,-30)">
        <path id="Circle" d="M1280,30C1969.89,30 2530,590.106 2530,1280C2530,1969.89 1969.89,2530 1280,2530C590.106,2530 30,1969.89 30,1280C30,590.106 590.106,30 1280,30ZM280,1200L800,1720L1200,1720L2120,800L1800,480L1000,1280L600,880L280,1200ZM1000,1840C889.617,1840 800,1929.62 800,2040C800,2150.38 889.617,2240 1000,2240C1110.38,2240 1200,2150.38 1200,2040C1200,1929.62 1110.38,1840 1000,1840Z" style="fill:rgb(17,17,17);"/>
    </g>
</svg>
